HIERARCHY
ROOT Hips
{
	OFFSET 0.00000 0.00000 0.00000
	CHANNELS 6 Xposition Yposition Zposition Zrotation Yrotation Xrotation 
	JOINT RightUpLegDummy
	{
		OFFSET 0 0 0
		CHANNELS 3 Zrotation Yrotation Xrotation
		JOINT RightUpLeg
		{
			OFFSET -3.52197 -3.41223 0.04002
			CHANNELS 3 Zrotation Yrotation Xrotation
			JOINT RightLeg
			{
				OFFSET 0.00006 -17.42390 1.60435
				CHANNELS 3 Zrotation Yrotation Xrotation
				JOINT RightFoot
				{
					OFFSET 0.06153 -16.50078 -1.63901
					CHANNELS 3 Zrotation Yrotation Xrotation
					JOINT RightToes
					{
						OFFSET 0.00298 -1.73825 3.34613
						CHANNELS 3 Zrotation Yrotation Xrotation
						End Site
						{
							OFFSET 0.00480 -0.05416 3.85043
						}
					}
				}
			}
		}
	}
	JOINT SpineDummy
	{
		OFFSET 0 0 0
		CHANNELS 3 Zrotation Yrotation Xrotation
		JOINT Spine
		{
			OFFSET 0.00000 4.68130 0.00000
			CHANNELS 3 Zrotation Yrotation Xrotation
			JOINT Spine1
			{
				OFFSET -0.00000 10.10138 0.05002
				CHANNELS 3 Zrotation Yrotation Xrotation
				JOINT HEadDummy
				{
					OFFSET 0 0 0
					CHANNELS 3 Zrotation Yrotation Xrotation
					JOINT Head
					{
						OFFSET -0.00000 3.43865 0.00438
						CHANNELS 3 Zrotation Yrotation Xrotation
						End Site
						{
							OFFSET -0.11417 5.02924 0.98962
						}
					}
				}
				JOINT LeftShoulder1Dummy
				{
					OFFSET 0 0 0
					CHANNELS 3 Zrotation Yrotation Xrotation
					JOINT LeftShoulder1
					{
						OFFSET 3.53937 -0.14262 -0.08662
						CHANNELS 3 Zrotation Yrotation Xrotation
						JOINT LeftArm
						{
							OFFSET 4.04833 -0.00133 0.12681
							CHANNELS 3 Zrotation Yrotation Xrotation
							JOINT LeftForeArm
							{
								OFFSET 10.33880 -0.01036 -0.55515
								CHANNELS 3 Zrotation Yrotation Xrotation
								JOINT LeftHand
								{
									OFFSET 8.69677 0.07543 0.40060
									CHANNELS 3 Zrotation Yrotation Xrotation
									End Site
									{
										OFFSET 5.28377 -0.21905 0.59205
									}
								}
							}
						}
					}
				}
				JOINT RightShoulderDummy
				{
					OFFSET 0 0 0
					CHANNELS 3 Zrotation Yrotation Xrotation
					JOINT RightShoulder
					{
						OFFSET -3.53937 -0.14262 -0.08660
						CHANNELS 3 Zrotation Yrotation Xrotation
						JOINT RightArm
						{
							OFFSET -4.04833 -0.00133 0.12683
							CHANNELS 3 Zrotation Yrotation Xrotation
							JOINT RightForeArm
							{
								OFFSET -10.37987 -0.01039 -0.55511
								CHANNELS 3 Zrotation Yrotation Xrotation
								JOINT RightHand
								{
									OFFSET -8.67398 0.07538 0.40058
									CHANNELS 3 Zrotation Yrotation Xrotation
									End Site
									{
										OFFSET -5.24810 -0.21916 0.59204
									}
								}
							}
						}
					}
				}
			}
		}
	}
	JOINT LeftUpLegDummy
	{
		OFFSET 0 0 0
		CHANNELS 3 Zrotation Yrotation Xrotation
		JOINT LeftUpLeg
		{
			OFFSET 3.52197 -3.41223 0.04002
			CHANNELS 3 Zrotation Yrotation Xrotation
			JOINT LeftLeg
			{
				OFFSET -0.00012 -17.42399 1.60337
				CHANNELS 3 Zrotation Yrotation Xrotation
				JOINT LeftFoot
				{
					OFFSET -0.09972 -16.50070 -1.63802
					CHANNELS 3 Zrotation Yrotation Xrotation
					JOINT LeftToes
					{
						OFFSET -0.01575 -1.73823 3.34611
						CHANNELS 3 Zrotation Yrotation Xrotation
						End Site
						{
							OFFSET 0.03150 -0.01868 3.85031
						}
					}
				}
			}
		}
	}
}
MOTION
Frames: 11
Frame Time: 0.033333
-35.0395 39.9188 63.8934 -178.3620 2.4206 178.4130 0.0000 0.0000 0.0000 2.4746 -0.8489 0.6135 -1.3670 -3.6684 4.1370 -1.7704 0.1028 -3.2670 0.0000 -0.0000 0.0000 0.0000 0.0000 0.0000 -1.1074 -0.7906 1.5348 4.5230 -1.6459 0.5847 -0.0000 0.0000 -0.0000 0.7280 1.6999 -6.8001 -0.0000 0.0000 -0.0000 -33.8386 -2.9008 2.5531 -44.7571 -15.6391 -17.3484 -10.2062 5.0067 52.2208 15.2646 -4.0257 -1.2087 -0.0000 0.0000 -0.0000 34.2294 5.0715 3.4509 40.4539 7.1194 -14.2513 11.5399 -1.5322 26.5334 -9.6916 0.7519 -0.5053 0.0000 0.0000 0.0000 2.4218 2.1229 1.6594 1.8833 6.7945 5.2606 2.7938 -0.0978 -5.3450 0.0000 0.0000 -0.0000
-35.0417 39.9188 63.8804 -178.3800 2.4206 178.4020 0.0000 0.0000 0.0000 2.4573 -0.8553 0.6487 -1.3801 -3.6692 4.1322 -1.7695 0.1028 -3.2904 0.0000 -0.0000 0.0000 0.0000 0.0000 0.0000 -1.1611 -0.7724 1.7552 4.5768 -1.6260 0.3187 -0.0000 0.0000 -0.0000 0.8322 2.0768 -6.8194 -0.0000 0.0000 -0.0000 -33.9594 -2.9224 2.5695 -44.6165 -15.5375 -17.2579 -10.3054 5.0094 52.0980 15.4223 -3.9099 -1.2070 -0.0000 0.0000 -0.0000 34.3647 5.0960 3.4725 40.2832 6.8847 -14.0906 11.6245 -1.3104 26.1819 -9.7042 0.5511 -0.4908 0.0000 0.0000 0.0000 2.4047 2.1240 1.7096 1.8669 6.8053 5.2215 2.8008 -0.0983 -5.3327 0.0000 0.0000 -0.0000
-35.0486 39.9188 63.8462 -178.3820 2.4149 178.3640 0.0000 0.0000 0.0000 2.4486 -0.8663 0.7718 -1.3949 -3.6700 4.0815 -1.7608 0.1023 -3.3226 0.0000 -0.0000 0.0000 0.0000 0.0000 0.0000 -1.1651 -0.7691 1.9674 4.5763 -1.6153 0.1049 -0.0000 0.0000 -0.0000 0.9633 2.4965 -6.8388 -0.0000 0.0000 -0.0000 -34.0666 -2.9261 2.5780 -44.4781 -15.5093 -17.1967 -10.3858 5.0108 52.0232 15.6528 -3.7940 -1.2110 -0.0000 0.0000 -0.0000 34.5237 5.1215 3.4966 40.1128 6.6383 -13.9705 11.6881 -1.0770 25.8694 -9.5444 0.4316 -0.4737 0.0000 0.0000 0.0000 2.3984 2.1379 1.8376 1.8414 6.7999 5.1546 2.8411 -0.1009 -5.3397 0.0000 0.0000 -0.0000
-35.0595 39.9188 63.8034 -178.3690 2.3979 178.3480 0.0000 0.0000 0.0000 2.4393 -0.8885 0.8956 -1.3904 -3.6629 4.0127 -1.7350 0.1008 -3.3527 0.0000 -0.0000 0.0000 0.0000 0.0000 0.0000 -1.0905 -0.7887 1.9469 4.4862 -1.6234 0.1596 -0.0000 0.0000 -0.0000 0.9980 2.5204 -6.7579 -0.0000 0.0000 -0.0000 -34.0658 -2.9087 2.5710 -44.4744 -15.5685 -17.2007 -10.3854 5.0115 52.0007 15.6742 -3.8013 -1.2136 -0.0000 0.0000 -0.0000 34.5439 5.1209 3.4982 40.1480 6.5876 -14.0351 11.6585 -1.0421 25.9016 -9.2568 0.6204 -0.4728 0.0000 0.0000 0.0000 2.3998 2.1526 1.9623 1.8155 6.7750 5.0779 2.8980 -0.1045 -5.3715 0.0000 0.0000 -0.0000
-35.0689 39.9188 63.7652 -178.3710 2.3939 178.3860 0.0000 0.0000 0.0000 2.4180 -0.9055 0.9223 -1.3865 -3.6430 4.0002 -1.7003 0.0987 -3.4021 0.0000 -0.0000 0.0000 0.0000 0.0000 0.0000 -1.0250 -0.8072 1.7759 4.3937 -1.6330 0.3336 -0.0000 0.0000 -0.0000 0.9473 2.3767 -6.5325 -0.0000 0.0000 -0.0000 -34.0138 -2.8973 2.5631 -44.5376 -15.5914 -17.1877 -10.3770 5.0145 51.9090 15.4845 -3.8731 -1.2075 -0.0000 0.0000 -0.0000 34.4719 5.1068 3.4862 40.3043 6.6751 -14.1656 11.6022 -1.1567 26.0799 -9.0162 1.0103 -0.4876 0.0000 0.0000 0.0000 2.3776 2.1381 1.9998 1.8194 6.7850 5.0429 2.9045 -0.1050 -5.4179 0.0000 0.0000 -0.0000
-35.0718 39.9162 63.7328 -178.3860 2.4381 178.4600 0.0000 0.0000 0.0000 2.4049 -0.8905 0.8579 -1.4090 -3.6125 4.0723 -1.6727 0.0972 -3.4831 0.0000 -0.0000 0.0000 0.0000 0.0000 0.0000 -1.0312 -0.8016 1.6420 4.3858 -1.6280 0.4267 -0.0000 0.0000 -0.0000 0.9212 2.2055 -6.2965 -0.0000 0.0000 -0.0000 -33.9844 -2.8912 2.5587 -44.5669 -15.5667 -17.1485 -10.3954 5.0177 51.7990 15.3586 -3.8564 -1.1952 -0.0000 0.0000 -0.0000 34.3987 5.0947 3.4749 40.4379 6.7664 -14.2511 11.5730 -1.2824 26.2014 -8.8588 1.4002 -0.5057 0.0000 0.0000 0.0000 2.3354 2.0987 1.9461 1.8699 6.8694 5.1107 2.8472 -0.1013 -5.4806 0.0000 0.0000 -0.0000
-35.0706 39.9117 63.7016 -178.3950 2.5391 178.5370 0.0000 0.0000 0.0000 2.4122 -0.8545 0.7655 -1.4351 -3.5524 4.1792 -1.6702 0.0973 -3.5707 0.0000 -0.0000 0.0000 0.0000 0.0000 0.0000 -1.0885 -0.7678 1.6167 4.4807 -1.6072 0.3876 -0.0000 0.0000 -0.0000 0.9266 2.0345 -6.1533 -0.0000 0.0000 -0.0000 -34.0129 -2.8713 2.5525 -44.5353 -15.5509 -17.1273 -10.4162 5.0192 51.7402 15.4466 -3.6702 -1.1787 -0.0000 0.0000 -0.0000 34.2904 5.0749 3.4575 40.5696 6.8126 -14.3166 11.5461 -1.3552 26.3009 -8.7463 1.6360 -0.5150 0.0000 0.0000 0.0000 2.3164 2.0884 1.8571 1.9158 6.9880 5.2543 2.8150 -0.0992 -5.5563 0.0000 0.0000 -0.0000
-35.0683 39.9084 63.6698 -178.3900 2.6567 178.6130 0.0000 0.0000 0.0000 2.4199 -0.8379 0.6946 -1.4256 -3.4572 4.2424 -1.6969 0.0992 -3.6319 0.0000 -0.0000 0.0000 0.0000 0.0000 0.0000 -1.1423 -0.7310 1.6422 4.6197 -1.5895 0.2817 -0.0000 0.0000 -0.0000 0.9140 1.8940 -6.0978 -0.0000 0.0000 -0.0000 -34.0903 -2.8440 2.5471 -44.4544 -15.5167 -17.0916 -10.4558 5.0230 51.6034 15.6005 -3.3995 -1.1564 -0.0000 0.0000 -0.0000 34.1571 5.0505 3.4361 40.7037 6.8374 -14.3660 11.5156 -1.3896 26.3686 -8.7419 1.5878 -0.5114 0.0000 0.0000 0.0000 2.3456 2.1465 1.7946 1.8832 7.0596 5.3537 2.8860 -0.1038 -5.6181 0.0000 0.0000 -0.0000
-35.0668 39.9095 63.6341 -178.3810 2.7340 178.6740 0.0000 0.0000 0.0000 2.4215 -0.8464 0.6932 -1.3967 -3.3771 4.2193 -1.7287 0.1013 -3.6653 0.0000 -0.0000 0.0000 0.0000 0.0000 0.0000 -1.1472 -0.7245 1.6468 4.6962 -1.5939 0.2050 -0.0000 0.0000 -0.0000 0.9088 1.7900 -6.0911 -0.0000 0.0000 -0.0000 -34.1536 -2.8346 2.5498 -44.3506 -15.4289 -16.9947 -10.5436 5.0312 51.3057 15.6590 -3.2121 -1.1369 -0.0000 0.0000 -0.0000 34.1695 5.0559 3.4394 40.6981 6.8357 -14.3348 11.5258 -1.3794 26.2502 -8.8942 1.2424 -0.4968 0.0000 0.0000 0.0000 2.4024 2.2416 1.8075 1.7819 7.0540 5.3345 3.0109 -0.1118 -5.6460 0.0000 0.0000 -0.0000
-35.0615 39.9113 63.5878 -178.3710 2.7533 178.6880 0.0000 0.0000 0.0000 2.4420 -0.8438 0.7935 -1.4003 -3.3665 4.1401 -1.7332 0.1000 -3.6984 0.0000 -0.0000 0.0000 0.0000 0.0000 0.0000 -1.0844 -0.7444 1.6018 4.6492 -1.6090 0.2361 -0.0000 0.0000 -0.0000 0.9380 1.6698 -6.1167 -0.0000 0.0000 -0.0000 -34.1348 -2.8492 2.5534 -44.2891 -15.3745 -16.9112 -10.6171 5.0375 51.0698 15.6689 -3.1683 -1.1320 -0.0000 0.0000 -0.0000 34.3534 5.0910 3.4695 40.5765 6.7711 -14.2676 11.5563 -1.2735 26.0135 -9.0525 0.8712 -0.4799 0.0000 0.0000 0.0000 2.4484 2.3011 1.9064 1.7136 7.0199 5.2615 3.0760 -0.1160 -5.6628 0.0000 0.0000 -0.0000
-35.0516 39.9110 63.5323 -178.3640 2.7388 178.6610 0.0000 0.0000 0.0000 2.4793 -0.8230 0.9422 -1.4395 -3.4056 4.0933 -1.7137 0.0981 -3.7620 0.0000 -0.0000 0.0000 0.0000 0.0000 0.0000 -0.9806 -0.7638 1.5213 4.5256 -1.6147 0.3718 -0.0000 0.0000 -0.0000 0.9847 1.4195 -6.2166 -0.0000 0.0000 -0.0000 -34.0267 -2.8667 2.5516 -44.3334 -15.4389 -16.9567 -10.5799 5.0365 51.1169 15.7338 -3.1693 -1.1370 -0.0000 0.0000 -0.0000 34.4357 5.0997 3.4802 40.6310 6.6690 -14.2891 11.5291 -1.0784 25.9863 -9.0338 0.8572 -0.4778 0.0000 0.0000 0.0000 2.4501 2.2792 2.0354 1.7562 7.0230 5.2440 3.0498 -0.1143 -5.7086 0.0000 0.0000 -0.0000
